<?xml version="1.0" standalone="no"?>
<!DOCTYPE svg PUBLIC "-//W3C//DTD SVG 20010904//EN"
 "http://www.w3.org/TR/2001/REC-SVG-20010904/DTD/svg10.dtd">
<svg version="1.0" xmlns="http://www.w3.org/2000/svg"
 width="320.000000pt" height="320.000000pt" viewBox="0 0 320.000000 320.000000"
 preserveAspectRatio="xMidYMid meet">
<metadata>
Created by potrace 1.14, written by Peter Selinger 2001-2017
</metadata>
<g transform="translate(0.000000,320.000000) scale(0.100000,-0.100000)"
fill="#000000" stroke="none">
<path d="M1055 3124 c-24 -26 -24 -27 -22 -225 2 -197 2 -199 -19 -199 -12 0
-53 -10 -93 -23 -65 -21 -71 -22 -71 -6 0 19 -153 293 -179 321 -9 10 -30 20
-48 24 -26 5 -36 2 -57 -21 -35 -38 -28 -67 42 -188 33 -56 70 -120 82 -142
12 -22 28 -47 36 -56 13 -14 7 -24 -55 -87 -42 -42 -71 -65 -74 -58 -7 19
-303 187 -337 193 -22 3 -36 -2 -55 -21 -48 -48 -25 -103 64 -146 28 -14 51
-28 51 -32 0 -5 5 -8 11 -8 6 0 48 -22 95 -50 47 -27 91 -50 99 -50 19 0 18
-3 -1 -65 -17 -53 -22 -76 -23 -113 -1 -19 -4 -21 -20 -12 -13 6 -91 9 -206 8
-185 -3 -186 -3 -205 -28 -27 -34 -25 -72 4 -99 23 -22 31 -23 206 -22 100 0
189 3 199 6 18 5 22 -4 35 -90 5 -26 20 -71 28 -81 6 -8 1 -14 -15 -18 -29 -7
-319 -174 -330 -190 -19 -28 -19 -59 0 -84 36 -49 61 -46 175 19 57 32 110 63
118 69 8 6 29 17 45 25 44 22 63 39 74 67 7 18 39 42 100 78 85 48 105 70 81
85 -5 3 -19 38 -31 77 -55 181 27 366 199 446 75 35 212 38 282 7 75 -32 130
-77 176 -139 l21 -29 88 57 c80 50 90 54 105 41 30 -27 72 -17 167 39 50 30
95 55 100 57 50 22 125 78 130 99 15 54 -20 100 -70 95 -30 -3 -291 -147 -330
-182 -16 -15 -22 -11 -86 52 -66 66 -68 69 -51 87 17 19 95 151 157 269 36 67
34 90 -10 122 -24 19 -55 19 -83 0 -16 -11 -184 -302 -184 -319 0 -24 -19 -25
-86 -4 -36 11 -77 20 -91 20 -20 0 -24 4 -19 17 4 10 7 101 7 203 l0 185 -26
23 c-35 29 -70 28 -100 -4z"/>
<path d="M1939 2320 c-182 -38 -352 -151 -452 -303 l-35 -52 -98 1 c-55 1
-103 -1 -109 -5 -5 -3 -18 -7 -28 -8 -9 -2 -43 -12 -74 -23 -171 -60 -303
-196 -372 -381 l-26 -73 -46 -2 c-196 -10 -382 -165 -434 -360 -34 -125 -14
-269 52 -383 37 -63 120 -141 190 -178 117 -63 87 -61 1163 -61 1000 0 1044 1
1125 37 11 5 38 17 60 27 135 59 262 205 315 364 25 73 35 241 19 307 -5 21
-11 45 -13 53 -34 138 -168 300 -302 368 -41 21 -42 22 -63 115 -50 217 -187
392 -384 492 -51 25 -121 53 -157 61 -98 24 -230 25 -331 4z m279 -243 c80
-21 191 -92 249 -157 33 -37 89 -148 102 -203 11 -46 14 -109 8 -187 -2 -34
-1 -35 53 -53 30 -10 64 -20 74 -22 41 -10 131 -72 167 -117 163 -205 69 -507
-182 -582 -48 -15 -157 -17 -1016 -17 -658 0 -975 3 -1002 11 -56 15 -120 67
-148 121 -60 117 -20 259 93 325 68 40 124 41 253 5 114 -32 146 -37 137 -23
-2 4 -8 44 -11 87 -4 44 -8 82 -10 85 -8 14 18 120 41 167 80 164 260 238 444
183 126 -37 118 -37 136 6 65 160 119 236 215 302 45 31 149 77 149 66 0 -3 8
-1 18 5 18 10 190 9 230 -2z"/>
</g>
</svg>
